<?xml version="1.0" standalone="no"?>
<!DOCTYPE svg PUBLIC "-//W3C//DTD SVG 20010904//EN"
 "http://www.w3.org/TR/2001/REC-SVG-20010904/DTD/svg10.dtd">
<svg version="1.0" xmlns="http://www.w3.org/2000/svg"
 width="840.000000pt" height="728.000000pt" viewBox="0 0 840.000000 728.000000"
 preserveAspectRatio="xMidYMid meet">

<g transform="translate(0.000000,728.000000) scale(0.100000,-0.100000)"
fill="#000000" stroke="none">
<path d="M3885 6859 c-680 -59 -1337 -349 -1851 -817 -585 -533 -932 -1189
-1039 -1964 -22 -160 -31 -540 -16 -722 63 -778 374 -1448 931 -2007 274 -274
524 -456 850 -619 367 -183 743 -287 1165 -321 183 -15 561 -6 725 16 767 104
1431 456 1963 1040 451 495 723 1091 809 1775 20 160 17 671 -5 830 -115 830
-501 1523 -1150 2068 -499 418 -1116 670 -1771 722 -150 12 -467 11 -611 -1z
m720 -114 c703 -96 1321 -400 1815 -895 503 -502 813 -1141 902 -1860 20 -157
16 -593 -6 -750 -100 -714 -400 -1325 -896 -1820 -502 -503 -1141 -813 -1860
-902 -157 -20 -593 -16 -750 6 -714 100 -1325 400 -1820 896 -496 495 -796
1104 -896 1820 -25 176 -25 614 0 790 100 716 400 1325 896 1820 536 537 1205
844 1990 914 102 9 510 -3 625 -19z"/>
<path d="M3230 6356 c-103 -57 -190 -363 -190 -671 0 -134 20 -296 40 -320 8
-10 3 -30 -23 -82 -40 -79 -100 -257 -122 -358 -38 -180 -5 -419 77 -550 17
-27 40 -66 50 -85 l19 -35 -5 60 c-3 33 -8 93 -12 133 -4 49 -3 72 5 72 6 0
11 -9 11 -21 0 -11 14 -63 31 -115 l31 -94 -24 -32 c-62 -85 -118 -228 -118
-303 0 -16 7 -43 15 -59 8 -15 15 -31 15 -35 0 -4 -22 -13 -49 -20 -61 -15
-79 -34 -60 -58 65 -83 191 -222 223 -245 41 -30 267 -107 374 -128 55 -11 60
-14 52 -31 -6 -10 -10 -27 -10 -39 0 -17 -4 -20 -17 -15 -61 26 -253 78 -334
91 l-96 15 -84 -40 c-81 -38 -270 -162 -330 -215 -16 -14 -29 -36 -29 -49 0
-41 164 -187 323 -287 l69 -43 96 12 c54 6 138 20 187 31 50 11 96 21 103 23
7 1 21 -12 33 -30 l20 -31 -58 -17 c-32 -9 -96 -32 -143 -50 -47 -18 -97 -36
-112 -39 -58 -13 -202 -170 -265 -289 -28 -51 -29 -58 -15 -66 24 -12 103 -28
205 -42 l88 -11 -93 -97 c-51 -53 -126 -135 -166 -182 -40 -47 -86 -96 -102
-108 -19 -13 -30 -31 -30 -45 0 -91 375 -396 592 -482 28 -11 48 -25 48 -34 0
-9 -9 -81 -20 -160 -12 -80 -22 -191 -23 -247 -2 -89 1 -105 19 -130 26 -35
70 -41 103 -13 24 21 25 25 82 360 11 69 24 128 28 132 3 4 49 -1 101 -12 223
-46 503 -45 718 1 52 11 95 19 96 17 1 -2 12 -30 25 -63 43 -110 142 -291 185
-341 24 -27 60 -58 79 -69 33 -17 37 -17 60 -2 47 30 44 66 -12 191 -28 61
-70 164 -94 227 -44 116 -45 129 -3 129 32 0 139 52 197 97 165 125 342 381
356 515 l5 55 -86 60 -86 60 127 6 c140 7 169 12 177 32 7 20 -87 201 -139
267 -54 70 -125 111 -323 188 -78 30 -142 57 -142 60 0 3 15 17 33 31 32 26
35 27 83 14 28 -7 108 -21 180 -30 178 -25 260 -17 344 33 92 54 240 182 301
259 88 110 83 101 63 124 -23 26 -187 145 -320 233 l-102 68 -123 0 c-99 0
-157 -6 -288 -31 l-163 -32 -33 38 c-18 21 -30 39 -27 40 10 4 450 94 497 102
22 4 54 15 71 24 77 40 314 249 314 277 0 10 -15 27 -32 38 -49 30 -181 72
-227 72 -23 0 -41 2 -41 5 0 2 12 39 26 81 23 68 24 82 14 119 l-11 41 95 143
c52 78 98 151 101 162 8 25 -9 46 -51 64 -36 15 -104 121 -188 294 -47 96 -54
129 -35 148 6 6 21 62 34 125 12 63 32 132 43 154 87 172 141 543 113 774 -17
135 -18 137 -59 152 -57 20 -288 17 -392 -5 -200 -43 -395 -112 -562 -199
l-97 -51 -39 16 c-72 29 -136 32 -181 9 -38 -20 -39 -20 -56 -2 -30 33 -231
159 -320 201 -112 53 -293 111 -430 139 -60 13 -114 27 -119 31 -14 13 -37 10
-66 -5z m1134 -521 c284 -43 557 -181 700 -355 88 -107 149 -249 185 -428 31
-154 34 -256 16 -523 -11 -169 -13 -257 -7 -280 l10 -34 2 35 c3 80 12 79 79
-11 61 -82 62 -85 57 -136 -7 -79 -77 -227 -138 -293 -27 -30 -47 -47 -44 -37
3 10 9 37 13 59 7 50 -11 49 -42 -1 -11 -18 -38 -54 -60 -79 -22 -26 -52 -62
-66 -80 l-25 -33 0 80 c1 64 -2 81 -13 81 -8 0 -59 -43 -113 -97 -54 -53 -100
-94 -102 -92 -3 2 4 31 15 63 11 33 18 68 16 78 -4 12 14 39 54 83 56 62 104
138 97 154 -2 4 -48 -41 -103 -100 -55 -59 -101 -104 -103 -99 -2 5 11 48 28
97 37 106 40 126 19 131 -20 4 -89 -76 -128 -149 l-28 -51 -7 64 c-9 80 8 157
65 299 23 57 46 120 52 139 l10 35 20 -45 c11 -25 28 -70 38 -100 l19 -55 -6
45 c-18 134 -38 187 -174 456 -137 271 -200 431 -215 547 -5 38 -10 48 -23 45
-14 -3 -18 -21 -25 -98 -4 -52 -6 -125 -5 -163 3 -59 2 -64 -9 -43 -25 48 -61
174 -68 239 -5 44 -12 67 -20 67 -18 0 -25 -23 -25 -79 0 -57 -45 -154 -145
-316 -77 -125 -114 -202 -124 -260 l-7 -40 -46 65 c-80 113 -144 257 -228 513
-50 149 -56 139 -79 -133 l-6 -75 -17 80 c-10 44 -24 127 -33 185 -9 57 -18
106 -20 108 -2 3 -7 -9 -10 -24 -3 -16 -17 -51 -32 -79 -14 -27 -54 -104 -89
-170 -76 -145 -145 -312 -174 -420 -28 -103 -36 -253 -17 -320 l14 -50 7 95
c7 93 40 282 54 306 10 17 7 -495 -2 -579 -6 -47 -5 -76 4 -97 16 -38 111
-110 211 -161 l76 -38 -13 -53 c-8 -29 -14 -64 -14 -77 0 -21 -12 -9 -62 60
-35 48 -68 95 -74 105 -18 28 -34 6 -48 -62 l-12 -58 -63 84 c-35 47 -68 95
-74 108 -6 12 -15 21 -21 19 -13 -5 -14 -109 -1 -152 7 -26 -7 -16 -99 70 -60
55 -112 110 -117 124 -11 27 3 109 28 169 18 45 76 142 83 142 3 0 19 -22 35
-50 16 -27 30 -48 32 -46 2 2 -21 80 -51 174 -56 171 -85 309 -87 412 -2 69
-12 119 -22 103 -9 -15 -27 -170 -35 -308 l-7 -110 -22 70 c-52 161 -57 305
-19 468 68 288 185 494 361 636 109 88 298 187 425 221 146 40 419 51 594 25z
m-758 -787 c20 -116 40 -175 81 -235 20 -29 36 -53 37 -53 0 0 -1 70 -2 155
-2 85 0 155 5 155 4 0 26 -51 47 -113 44 -125 119 -280 166 -345 18 -23 52
-56 75 -72 l43 -30 7 31 c14 62 57 153 140 291 47 79 93 162 103 185 9 24 20
43 23 43 3 0 13 -26 23 -57 21 -65 70 -169 94 -196 9 -10 12 -21 6 -26 -14
-12 -114 -49 -169 -62 -60 -14 -88 -35 -65 -49 8 -5 27 -6 43 -3 l30 6 -6
-169 c-8 -203 -1 -258 30 -262 41 -6 46 25 41 243 l-4 202 60 23 c34 12 69 31
79 42 18 18 18 21 3 59 -10 24 -18 84 -21 147 l-5 107 30 -85 c16 -46 72 -165
122 -265 51 -99 108 -211 127 -248 l35 -68 -62 -152 c-78 -191 -82 -205 -90
-301 l-7 -79 -80 -29 c-104 -38 -247 -75 -364 -94 -76 -12 -112 -13 -190 -4
-194 22 -288 48 -421 116 -113 58 -183 125 -164 156 5 7 7 153 6 323 -1 171 2
351 6 400 8 85 14 100 86 249 43 87 80 155 83 153 3 -3 11 -43 19 -89z m1895
-1132 c46 -14 104 -33 128 -43 l44 -19 -69 -63 c-38 -35 -105 -91 -149 -125
-89 -69 -76 -65 -443 -141 -92 -19 -186 -41 -209 -49 -56 -20 -197 -3 -230 27
-28 25 -29 37 -3 37 10 0 59 20 107 45 48 25 89 45 90 45 2 0 -1 -9 -7 -20 -6
-12 -10 -34 -8 -50 l3 -29 42 19 c23 10 77 53 121 94 l80 77 7 -83 8 -83 75
80 c63 67 74 76 70 52 -9 -45 21 -33 93 38 45 44 79 89 105 140 22 41 44 75
50 75 7 0 49 -11 95 -24z m-741 -77 c-6 -18 -10 -58 -10 -87 0 -50 1 -52 21
-42 40 22 29 2 -18 -33 -52 -38 -152 -91 -159 -84 -2 2 1 27 8 56 21 93 -5 90
-142 -16 l-74 -58 -59 59 c-32 33 -56 65 -53 71 2 7 23 15 46 19 54 8 225 63
272 87 21 11 41 19 46 19 8 0 35 -54 44 -89 2 -8 21 21 41 64 38 80 54 95 37
34z m-1636 -55 c33 -26 81 -56 104 -66 24 -11 57 -34 73 -51 33 -37 36 -26 14
47 -16 52 -14 71 4 38 29 -54 130 -152 157 -152 4 0 4 29 0 65 -7 68 1 82 23
41 8 -13 44 -54 82 -91 l69 -66 1 43 c0 24 4 51 7 61 7 16 10 14 30 -12 12
-17 37 -38 55 -47 17 -10 37 -24 44 -33 10 -14 12 -12 19 14 11 46 14 48 37
19 20 -26 20 -27 1 -40 -10 -7 -23 -17 -29 -21 -5 -4 -23 -9 -40 -11 -44 -5
-126 -45 -158 -77 l-27 -28 -83 26 c-45 14 -135 42 -199 62 -69 21 -130 46
-147 61 -36 30 -193 209 -193 220 1 6 73 41 91 43 2 1 31 -20 65 -45z m628
-54 c60 -16 216 -40 266 -40 40 0 -43 -89 -97 -103 -26 -6 -59 24 -86 81 -14
27 -19 31 -31 21 -8 -6 -18 -26 -23 -43 l-8 -31 -52 52 c-28 29 -51 60 -51 68
0 19 -5 19 82 -5z m469 -113 c-12 -31 -100 -92 -114 -78 -9 9 -40 142 -35 146
2 1 37 6 78 11 l75 9 3 -31 c2 -16 -2 -42 -7 -57z m317 -21 c-14 -51 -13 -51
-57 -33 l-31 13 48 36 c26 19 48 34 50 33 1 -1 -3 -23 -10 -49z m-480 -35 l20
-59 -65 -51 c-36 -29 -66 -51 -68 -49 -1 2 5 41 14 87 14 70 21 87 46 107 17
13 31 24 32 24 0 0 10 -26 21 -59z m260 25 c23 -33 23 -35 7 -95 -9 -34 -20
-73 -26 -88 l-10 -26 -59 64 -60 64 39 40 c21 22 41 48 44 58 10 27 40 20 65
-17z m-581 -188 c-50 -91 -77 -172 -77 -227 0 -20 -3 -47 -7 -60 -5 -20 -10
-14 -34 45 -31 77 -34 101 -18 174 14 67 56 114 122 139 29 10 54 18 55 16 2
-2 -16 -41 -41 -87z m398 68 c12 -12 12 -15 -1 -20 -9 -3 -27 -6 -41 -6 -25 0
-26 0 -8 20 21 24 32 25 50 6z m555 -36 c36 -6 78 -16 93 -22 31 -12 77 -74
106 -141 18 -41 18 -45 1 -89 -10 -26 -39 -74 -65 -107 -42 -54 -53 -61 -101
-72 -51 -12 -55 -11 -97 17 -24 16 -62 50 -85 75 -47 52 -53 88 -28 156 8 21
17 64 20 97 8 95 27 106 156 86z m-452 -56 c47 -60 51 -81 22 -115 l-19 -24
-1 23 c0 13 -23 48 -56 83 l-56 61 23 13 c36 20 41 18 87 -41z m-241 -23 c-30
-31 -57 -66 -61 -78 -5 -15 -13 -19 -26 -16 -27 7 -33 33 -16 79 8 21 15 31
15 22 1 -28 22 -21 75 22 69 57 77 38 13 -29z m-692 7 c61 -15 143 -36 183
-46 39 -9 72 -20 72 -23 0 -3 -13 -23 -30 -44 -16 -21 -30 -45 -30 -55 0 -9
-14 -29 -31 -46 -32 -29 -79 -120 -79 -152 0 -10 12 -35 26 -55 14 -21 24 -41
21 -43 -2 -3 -86 -18 -186 -35 l-181 -30 -107 73 c-112 77 -253 201 -253 223
0 14 255 193 345 242 69 37 77 37 250 -9z m2263 -46 c64 -45 159 -110 210
-144 l93 -63 -111 -107 c-115 -111 -219 -194 -302 -242 -43 -25 -52 -27 -120
-21 -80 7 -351 45 -356 50 -1 1 27 32 63 68 56 56 65 70 65 101 0 53 -21 96
-68 138 -22 20 -43 46 -47 57 -3 11 -17 29 -31 40 -14 11 -24 29 -24 45 0 15
-7 43 -15 63 -8 20 -14 37 -13 38 11 10 426 63 476 61 60 -2 65 -4 180 -84z
m-1565 -27 c-16 -32 -33 -46 -33 -26 0 9 39 61 46 61 2 0 -4 -16 -13 -35z
m197 -32 c0 -7 -7 -13 -15 -13 -8 0 -15 2 -15 4 0 2 -7 21 -16 42 l-16 39 31
-29 c17 -17 31 -36 31 -43z m-134 -11 c-12 -12 -18 8 -10 35 l8 28 4 -28 c2
-16 1 -31 -2 -35z m57 18 c3 -11 1 -20 -4 -20 -5 0 -9 9 -9 20 0 11 2 20 4 20
2 0 6 -9 9 -20z m-528 -141 c9 -19 26 -41 37 -50 12 -9 19 -22 16 -29 -3 -9
-20 2 -50 31 -47 45 -68 99 -53 136 6 15 10 11 20 -18 7 -20 21 -51 30 -70z
m1356 -17 c-12 -44 -80 -112 -113 -112 -10 0 -18 2 -18 4 0 3 22 34 49 70 27
36 52 75 56 86 6 20 9 20 22 7 12 -12 12 -22 4 -55z m-1402 -47 c6 -3 7 -27 4
-53 -5 -50 11 -97 59 -164 l19 -27 -26 -17 c-29 -19 -32 -49 -9 -83 16 -22 15
-24 -12 -47 -47 -38 -114 -26 -114 19 0 16 12 29 45 47 25 14 45 31 45 39 0
16 -36 81 -92 164 -36 53 -39 61 -28 90 6 18 22 50 37 71 l26 40 18 -37 c10
-19 23 -38 28 -42z m1502 -37 c40 -78 44 -72 -192 -278 -126 -111 -159 -149
-159 -185 0 -25 17 -16 40 20 12 19 27 35 34 35 21 0 57 -45 50 -63 -9 -24
-70 -67 -94 -67 -23 0 -76 24 -102 48 -44 38 -1 108 194 309 76 79 136 148
133 154 -4 5 -15 3 -28 -6 -12 -8 -26 -15 -32 -15 -5 0 4 9 21 19 33 20 74 71
74 92 0 19 40 -21 61 -63z m-1401 -49 c0 -32 -3 -39 -20 -39 -22 0 -53 50 -45
73 4 9 16 12 35 9 27 -4 30 -8 30 -43z m990 -11 c0 -13 41 -10 99 8 46 13 55
13 69 1 10 -8 25 -17 35 -20 24 -9 21 -15 -31 -61 -40 -37 -45 -38 -91 -32
-27 3 -71 13 -98 21 l-50 15 10 49 c9 47 10 49 33 39 13 -6 24 -15 24 -20z
m-990 -80 c0 -19 -2 -20 -10 -8 -13 19 -13 30 0 30 6 0 10 -10 10 -22z m1053
-58 c30 0 35 -11 12 -30 -12 -10 -28 -7 -82 16 -81 33 -76 30 -69 42 3 5 28 1
58 -9 29 -10 65 -18 81 -19z m-76 -50 l52 -22 -21 -28 c-19 -26 -21 -27 -37
-11 -10 9 -30 26 -44 38 -27 23 -38 60 -14 50 6 -3 35 -15 64 -27z m-1195 -70
c-5 -45 15 -85 48 -95 12 -4 20 -10 18 -15 -2 -4 -59 -66 -128 -138 l-126
-130 -153 22 -153 22 45 66 c67 101 145 185 191 208 40 19 245 99 256 100 3 0
4 -18 2 -40z m1609 -111 c213 -95 232 -109 324 -254 81 -126 84 -135 54 -135
-13 -1 -82 -5 -153 -10 l-129 -8 -46 32 c-25 18 -104 76 -174 129 -71 54 -133
97 -138 97 -20 0 -7 16 32 38 65 37 76 87 29 134 -24 24 -28 33 -19 44 6 8 17
14 24 14 6 0 95 -37 196 -81z m208 -544 c61 -38 63 -40 57 -73 -5 -33 -13 -50
-19 -41 -1 2 -29 39 -61 83 -32 43 -54 77 -49 75 5 -2 37 -22 72 -44z m-2049
-335 c0 -93 -3 -170 -6 -170 -25 0 -334 268 -334 290 0 4 51 15 113 24 61 9
123 18 137 20 14 2 40 4 58 5 l32 1 0 -170z m2060 142 c0 -15 -74 -124 -139
-204 -69 -86 -167 -178 -189 -178 -16 0 -13 87 10 282 l11 97 101 4 c56 1 125
4 154 5 28 1 52 -2 52 -6z m-1649 -189 c7 -21 41 -105 76 -187 35 -82 61 -151
58 -154 -7 -8 -146 26 -230 55 -122 43 -256 113 -253 132 2 9 65 48 152 93 82
42 153 81 159 87 18 18 25 13 38 -26z m1083 -85 c61 -51 127 -105 146 -119
l34 -26 -126 -40 c-140 -46 -325 -90 -334 -80 -4 3 4 32 16 64 23 57 142 293
148 293 2 0 54 -42 116 -92z m-580 -24 c22 -30 77 -100 124 -157 l84 -102 -39
-7 c-97 -17 -483 -1 -483 21 0 24 243 301 264 301 6 -1 29 -26 50 -56z m-570
-236 c55 -15 57 -18 46 -58 -5 -19 -24 -115 -41 -215 -34 -196 -44 -235 -65
-235 -28 0 -37 41 -31 144 5 108 38 376 45 376 3 0 23 -5 46 -12z m1195 -60
c20 -61 73 -191 146 -354 12 -27 12 -34 0 -50 -13 -18 -17 -16 -68 37 -42 43
-72 91 -136 219 -45 90 -80 170 -79 179 3 13 62 38 99 40 10 1 22 -21 38 -71z"/>
<path d="M3537 4736 c-7 -17 5 -28 51 -46 l32 -13 -5 -161 c-8 -228 5 -289 55
-256 13 8 14 39 12 200 -3 137 0 195 8 205 21 25 5 41 -62 63 -76 26 -84 27
-91 8z"/>
<path d="M4090 4042 c-55 -4 -184 -33 -197 -44 -20 -16 -15 -97 8 -145 22 -45
61 -73 101 -73 21 1 20 3 -14 34 -39 34 -68 89 -68 129 0 21 7 25 78 40 120
26 158 23 193 -14 35 -38 48 -81 38 -134 -4 -22 -6 -42 -4 -44 2 -2 15 8 29
22 32 32 34 82 7 135 -37 73 -89 101 -171 94z"/>
</g>
</svg>
